<svg width="16" height="17" viewBox="0 0 16 17" fill="none" xmlns="http://www.w3.org/2000/svg">
<path d="M9.33333 2.5V3.83333H11.7267L5.17333 10.3867L6.11333 11.3267L12.6667 4.77333V7.16667H14V2.5M12.6667 13.1667H3.33333V3.83333H8V2.5H3.33333C2.97971 2.5 2.64057 2.64048 2.39052 2.89052C2.14048 3.14057 2 3.47971 2 3.83333V13.1667C2 13.5203 2.14048 13.8594 2.39052 14.1095C2.64057 14.3595 2.97971 14.5 3.33333 14.5H12.6667C13.0203 14.5 13.3594 14.3595 13.6095 14.1095C13.8595 13.8594 14 13.5203 14 13.1667V8.5H12.6667V13.1667Z" fill="white"/>
</svg>
