<svg width="16" height="17" viewBox="0 0 16 17" fill="none" xmlns="http://www.w3.org/2000/svg">
<path d="M7.99992 1.83334C7.12444 1.83334 6.25753 2.00578 5.4487 2.34081C4.63986 2.67584 3.90493 3.16691 3.28587 3.78596C2.03563 5.03621 1.33325 6.7319 1.33325 8.50001C1.33325 11.4467 3.24659 13.9467 5.89325 14.8333C6.22658 14.8867 6.33325 14.68 6.33325 14.5V13.3733C4.48659 13.7733 4.09325 12.48 4.09325 12.48C3.78659 11.7067 3.35325 11.5 3.35325 11.5C2.74659 11.0867 3.39992 11.1 3.39992 11.1C4.06659 11.1467 4.41992 11.7867 4.41992 11.7867C4.99992 12.8 5.97992 12.5 6.35992 12.34C6.41992 11.9067 6.59325 11.6133 6.77992 11.4467C5.29992 11.28 3.74659 10.7067 3.74659 8.16668C3.74659 7.42668 3.99992 6.83334 4.43325 6.36001C4.36659 6.19334 4.13325 5.50001 4.49992 4.60001C4.49992 4.60001 5.05992 4.42001 6.33325 5.28001C6.85992 5.13334 7.43325 5.06001 7.99992 5.06001C8.56659 5.06001 9.13992 5.13334 9.66658 5.28001C10.9399 4.42001 11.4999 4.60001 11.4999 4.60001C11.8666 5.50001 11.6333 6.19334 11.5666 6.36001C11.9999 6.83334 12.2533 7.42668 12.2533 8.16668C12.2533 10.7133 10.6933 11.2733 9.20658 11.44C9.44658 11.6467 9.66658 12.0533 9.66658 12.6733V14.5C9.66658 14.68 9.77325 14.8933 10.1133 14.8333C12.7599 13.94 14.6666 11.4467 14.6666 8.50001C14.6666 7.62453 14.4941 6.75762 14.1591 5.94879C13.8241 5.13995 13.333 4.40502 12.714 3.78596C12.0949 3.16691 11.36 2.67584 10.5511 2.34081C9.7423 2.00578 8.8754 1.83334 7.99992 1.83334Z" fill="white"/>
</svg>
